<svg width="251" height="74" viewBox="0 0 251 74" fill="none" xmlns="http://www.w3.org/2000/svg">
<g clip-path="url(#clip0)">
<path d="M36.8637 0.30732C37.4292 0.0846001 38.0632 0.0503354 38.663 0.0332031C46.2372 0.290188 53.7087 3.04849 59.6893 7.70848C57.5472 6.30363 55.1139 5.37848 52.6634 4.65893C48.7049 3.49393 44.6093 2.97996 40.548 2.29467C39.5027 2.08908 38.4231 1.90063 37.4292 1.52371C37.0693 1.35239 36.658 1.1982 36.4695 0.855554C36.3667 0.581437 36.6409 0.392982 36.8637 0.30732Z" fill="#5625BF"/>
<path d="M20.6871 3.92319C22.7435 2.89525 24.8855 2.03864 27.0961 1.42188C25.8966 1.88445 24.6285 2.50121 23.9773 3.66621C23.5832 4.3515 23.7202 5.27665 24.2857 5.84201C25.2454 6.81855 26.6506 7.14407 27.9529 7.40105C31.363 7.96642 34.8417 7.76083 38.2861 7.76083C44.4038 7.65804 50.6414 7.77796 56.5706 9.4912C58.4042 10.0223 60.1863 10.7076 61.8657 11.5813C63.9392 12.6778 65.9099 14.0655 67.3836 15.9158C67.8977 16.6011 68.3432 17.3378 68.7716 18.0745C70.2625 20.6101 71.462 23.2998 72.2846 26.1267C71.6334 24.4134 70.5538 22.8715 69.2514 21.5695C66.6639 18.9825 63.3051 17.3035 59.8265 16.2756C56.2964 15.2477 52.6121 14.8879 48.962 14.8879C44.1467 14.905 39.3828 15.5903 34.6361 16.3099C31.0717 16.841 27.5074 17.4063 23.8916 17.4749C21.9381 17.492 19.9503 17.3721 18.0653 16.7724C16.8143 16.3784 15.5976 15.7445 14.7065 14.7508C13.764 13.7229 13.3185 12.2495 13.5584 10.8789C13.8669 9.02862 15.1007 7.45245 16.5744 6.33885C17.8768 5.43084 19.2819 4.64275 20.6871 3.92319Z" fill="#7331FF"/>
<path d="M3.34167 22.5457C4.57549 19.6161 6.15203 16.8407 8.10557 14.3394C7.54007 15.196 7.06025 16.1383 6.7518 17.1148C6.10062 19.2049 6.23771 21.5692 7.24875 23.5394C8.20838 25.4754 9.95629 26.9488 11.8927 27.8396C14.4117 29.0046 17.2392 29.3301 19.981 29.2959C23.4426 29.2274 26.8698 28.5935 30.2285 27.8568C33.5016 27.1372 36.7575 26.2806 40.0477 25.561C44.109 24.653 48.2045 23.9163 52.3687 23.7964C56.5671 23.6765 60.8683 24.1733 64.7411 25.8694C67.1573 26.9316 69.4193 28.4735 71.0987 30.5294C72.6752 32.4311 73.7205 34.7954 73.8233 37.2796C73.7891 41.0487 73.1207 44.8349 71.9041 48.3813C72.6067 45.8971 72.1782 43.1559 70.8245 40.963C69.9505 39.5068 68.6996 38.2732 67.2944 37.3138C65.4094 36.046 63.2502 35.2579 61.0396 34.8296C59.0518 34.4527 57.0297 34.3328 55.0248 34.4013C50.8435 34.5384 46.7308 35.4293 42.6695 36.4401C38.3169 37.5537 33.9985 38.8557 29.6116 39.8151C26.1672 40.569 22.6543 41.1001 19.1242 41.0829C15.577 41.0487 11.9441 40.3634 8.82529 38.5987C6.23771 37.1425 4.0614 34.8639 2.94754 32.0885C1.9879 29.7242 1.81654 27.0344 2.5534 24.6016C2.77617 23.9163 3.05035 23.231 3.34167 22.5457Z" fill="#8F5AFF"/>
<path d="M0.499241 35.874H0.516378C0.55065 39.232 2.02437 42.4357 4.25209 44.8856C6.87395 47.7981 10.4726 49.6998 14.2426 50.6935C18.7323 51.8756 23.4448 51.8242 28.0373 51.2588C32.27 50.7277 36.4341 49.7341 40.5982 48.7233C43.9055 47.9352 47.2128 47.13 50.5716 46.616C52.6451 46.3076 54.7528 46.1191 56.8606 46.1877C59.0883 46.2733 61.3674 46.6331 63.3895 47.6097C65.2402 48.4834 66.8682 49.991 67.5879 51.9441C68.3933 54.0514 67.9649 56.4671 66.7482 58.3345C65.7715 59.7222 64.6405 61.0071 63.4581 62.2406C62.0015 63.714 60.4249 65.1189 58.7284 66.3181C59.7395 65.4615 60.6134 64.3308 60.8019 62.9945C60.9562 62.0693 60.682 61.0928 60.0993 60.3561C59.4653 59.5337 58.5571 58.9855 57.6146 58.6257C55.7639 57.9062 53.7589 57.7862 51.8054 57.752C47.5556 57.8205 43.3743 58.5743 39.1759 59.174C35.1146 59.7736 31.0362 60.2876 26.9234 60.3047C22.1253 60.339 17.2414 59.6879 12.786 57.7862C10.3183 56.7412 8.02208 55.3021 6.08568 53.4518C4.42346 51.8585 3.03542 49.9225 2.21287 47.7638C0.979058 43.9433 0.447832 39.9001 0.499241 35.874Z" fill="#7331FF"/>
<path d="M7.54419 58.2676C9.60055 60.7689 12.3766 62.5849 15.3241 63.887C18.1516 65.1376 21.1504 65.9257 24.2007 66.4054C30.1641 67.3648 36.2132 67.0393 42.211 67.0393C44.1816 67.0907 46.1866 67.1249 48.1058 67.5875C48.877 67.7931 49.6824 68.0501 50.2479 68.6497C50.6077 68.9924 50.7448 69.5749 50.5049 70.0203C50.1108 70.8084 49.2883 71.2196 48.5171 71.5451C44.85 72.7786 40.96 73.3611 37.0872 73.344C37.3442 73.3097 37.6356 73.2926 37.8755 73.1555C37.9954 73.0527 37.8755 72.8642 37.7726 72.83C37.2414 72.5216 36.6245 72.4017 36.0247 72.2646C34.4996 71.9391 32.9573 71.7335 31.4151 71.4765C28.2106 70.9626 25.0061 70.3629 21.9216 69.335C19.8309 68.6326 17.7746 67.7588 15.9238 66.5596C14.0046 65.2404 12.2395 63.6642 10.6287 61.9853C9.51487 60.8031 8.46955 59.5696 7.54419 58.2676Z" fill="#5625BF"/>
</g>
<path d="M99.0339 26.8525C101.909 26.8525 104.197 27.7912 105.899 29.6688C107.63 31.5171 108.495 34.0694 108.495 37.3259V51.6719H101.014V38.338C101.014 36.6951 100.589 35.419 99.738 34.5095C98.8873 33.6 97.7431 33.1453 96.3056 33.1453C94.868 33.1453 93.7239 33.6 92.8731 34.5095C92.0223 35.419 91.5969 36.6951 91.5969 38.338V51.6719H84.0719V27.1165H91.5969V30.3729C92.3597 29.2875 93.3865 28.4367 94.6773 27.8206C95.9682 27.1752 97.4204 26.8525 99.0339 26.8525ZM126.046 33.3654H121.998V51.6719H114.473V33.3654H111.744V27.1165H114.473V26.4124C114.473 23.3906 115.338 21.1023 117.069 19.5474C118.8 17.9632 121.337 17.1711 124.682 17.1711C125.239 17.1711 125.65 17.1858 125.914 17.2151V23.596C124.477 23.508 123.464 23.7134 122.878 24.2121C122.291 24.7108 121.998 25.6056 121.998 26.8965V27.1165H126.046V33.3654ZM143.268 45.291V51.6719H139.439C136.711 51.6719 134.584 51.0118 133.059 49.6916C131.533 48.3421 130.77 46.1564 130.77 43.1347V33.3654H127.778V27.1165H130.77V21.1317H138.295V27.1165H143.224V33.3654H138.295V43.2227C138.295 43.9561 138.471 44.4842 138.823 44.8069C139.175 45.1296 139.762 45.291 140.584 45.291H143.268ZM177.12 27.1165C178.997 27.1165 180.669 27.5125 182.136 28.3047C183.603 29.0674 184.762 30.2263 185.613 31.7811C186.464 33.336 186.889 35.2283 186.889 37.4579V51.6719H182.928V38.03C182.928 35.6243 182.327 33.7907 181.124 32.5292C179.951 31.2384 178.352 30.593 176.328 30.593C174.245 30.593 172.587 31.2677 171.355 32.6172C170.123 33.9374 169.507 35.859 169.507 38.382V51.6719H165.546V38.03C165.546 35.6243 164.945 33.7907 163.742 32.5292C162.568 31.2384 160.969 30.593 158.945 30.593C156.862 30.593 155.205 31.2677 153.972 32.6172C152.74 33.9374 152.124 35.859 152.124 38.382V51.6719H148.12V27.5565H152.124V31.033C152.916 29.7715 153.972 28.8034 155.293 28.1286C156.642 27.4539 158.124 27.1165 159.737 27.1165C161.761 27.1165 163.551 27.5712 165.106 28.4807C166.661 29.3901 167.82 30.725 168.582 32.4852C169.257 30.7837 170.372 29.4635 171.927 28.5247C173.482 27.5859 175.213 27.1165 177.12 27.1165ZM191.962 39.5262C191.962 37.0619 192.46 34.9056 193.458 33.0573C194.455 31.1797 195.82 29.7275 197.55 28.7007C199.311 27.6739 201.262 27.1605 203.403 27.1605C205.516 27.1605 207.349 27.6152 208.904 28.5247C210.459 29.4341 211.618 30.5783 212.381 31.9572V27.5565H216.429V51.6719H212.381V47.1833C211.588 48.5915 210.4 49.7649 208.816 50.7037C207.261 51.6132 205.442 52.0679 203.359 52.0679C201.218 52.0679 199.281 51.5399 197.55 50.4837C195.82 49.4276 194.455 47.946 193.458 46.0391C192.46 44.1322 191.962 41.9612 191.962 39.5262ZM212.381 39.5702C212.381 37.7513 212.014 36.1671 211.28 34.8176C210.547 33.468 209.549 32.4412 208.288 31.7371C207.056 31.0037 205.692 30.637 204.195 30.637C202.699 30.637 201.335 30.989 200.103 31.6931C198.871 32.3972 197.888 33.424 197.154 34.7735C196.421 36.1231 196.054 37.7073 196.054 39.5262C196.054 41.3745 196.421 42.988 197.154 44.3669C197.888 45.7164 198.871 46.7579 200.103 47.4913C201.335 48.1954 202.699 48.5474 204.195 48.5474C205.692 48.5474 207.056 48.1954 208.288 47.4913C209.549 46.7579 210.547 45.7164 211.28 44.3669C212.014 42.988 212.381 41.3891 212.381 39.5702ZM227.201 32.0012C227.993 30.6223 229.167 29.4781 230.721 28.5687C232.306 27.6299 234.139 27.1605 236.222 27.1605C238.364 27.1605 240.3 27.6739 242.031 28.7007C243.791 29.7275 245.17 31.1797 246.168 33.0573C247.165 34.9056 247.664 37.0619 247.664 39.5262C247.664 41.9612 247.165 44.1322 246.168 46.0391C245.17 47.946 243.791 49.4276 242.031 50.4837C240.3 51.5399 238.364 52.0679 236.222 52.0679C234.169 52.0679 232.35 51.6132 230.765 50.7037C229.211 49.7649 228.022 48.6061 227.201 47.2273V63.1135H223.196V27.5565H227.201V32.0012ZM243.571 39.5262C243.571 37.7073 243.204 36.1231 242.471 34.7735C241.738 33.424 240.74 32.3972 239.479 31.6931C238.246 30.989 236.882 30.637 235.386 30.637C233.919 30.637 232.555 31.0037 231.293 31.7371C230.061 32.4412 229.064 33.4827 228.301 34.8616C227.568 36.2111 227.201 37.7806 227.201 39.5702C227.201 41.3891 227.568 42.988 228.301 44.3669C229.064 45.7164 230.061 46.7579 231.293 47.4913C232.555 48.1954 233.919 48.5474 235.386 48.5474C236.882 48.5474 238.246 48.1954 239.479 47.4913C240.74 46.7579 241.738 45.7164 242.471 44.3669C243.204 42.988 243.571 41.3745 243.571 39.5262Z" fill="white"/>
<defs>
<clipPath id="clip0">
<rect width="73.3434" height="73.3434" fill="white" transform="translate(0.5)"/>
</clipPath>
</defs>
</svg>
